<?xml version="1.0" encoding="UTF-8" standalone="no"?>
<!-- Created with Inkscape (http://www.inkscape.org/) -->

<svg
   xmlns:dc="http://purl.org/dc/elements/1.1/"
   xmlns:cc="http://creativecommons.org/ns#"
   xmlns:rdf="http://www.w3.org/1999/02/22-rdf-syntax-ns#"
   xmlns:svg="http://www.w3.org/2000/svg"
   xmlns="http://www.w3.org/2000/svg"
   xmlns:sodipodi="http://sodipodi.sourceforge.net/DTD/sodipodi-0.dtd"
   xmlns:inkscape="http://www.inkscape.org/namespaces/inkscape"
   version="1.1"
   id="svg2150"
   width="512"
   height="512.00012"
   viewBox="0 0 511.99999 512.00012"
   sodipodi:docname="clny-logo.svg"
   inkscape:export-filename="/home/rdig/development/colony/colony-token-sale/custom/assets/tokens/clny-logo.png"
   inkscape:export-xdpi="96"
   inkscape:export-ydpi="96"
   inkscape:version="0.92.3 (2405546, 2018-03-11)">
  <metadata
     id="metadata2156">
    <rdf:RDF>
      <cc:Work
         rdf:about="">
        <dc:format>image/svg+xml</dc:format>
        <dc:type
           rdf:resource="http://purl.org/dc/dcmitype/StillImage" />
        <dc:title></dc:title>
      </cc:Work>
    </rdf:RDF>
  </metadata>
  <defs
     id="defs2154" />
  <sodipodi:namedview
     pagecolor="#ffffff"
     bordercolor="#666666"
     borderopacity="1"
     objecttolerance="10"
     gridtolerance="10"
     guidetolerance="10"
     inkscape:pageopacity="0"
     inkscape:pageshadow="2"
     inkscape:window-width="3840"
     inkscape:window-height="2086"
     id="namedview2152"
     showgrid="false"
     inkscape:zoom="1"
     inkscape:cx="94.873002"
     inkscape:cy="623.99365"
     inkscape:window-x="0"
     inkscape:window-y="0"
     inkscape:window-maximized="1"
     inkscape:current-layer="svg2150"
     fit-margin-top="0"
     fit-margin-left="0"
     fit-margin-right="0"
     fit-margin-bottom="0" />
  <path
     id="path2873"
     d="M 256,-0.03326896 A 64.909952,64.909952 0 0 0 191.09048,64.876251 64.909952,64.909952 0 0 0 256,129.78577 64.909952,64.909952 0 0 0 320.90952,64.876251 64.909952,64.909952 0 0 0 256,-0.03326896 Z M 139.18809,28.007201 28.04047,139.15482 h 111.14762 z m 233.62382,0 V 139.15482 H 483.95953 Z M 256.00238,152.1953 152.14761,256.05007 256.00238,359.90483 359.85714,256.05007 Z M 64.90952,191.0572 A 64.909952,64.909952 0 0 0 0,255.96673 64.909952,64.909952 0 0 0 64.90952,320.87625 64.909952,64.909952 0 0 0 129.81905,255.96673 64.909952,64.909952 0 0 0 64.90952,191.0572 Z m 382.18096,0 a 64.909952,64.909952 0 0 0 -64.90953,64.90953 64.909952,64.909952 0 0 0 64.90953,64.90952 A 64.909952,64.909952 0 0 0 512,255.96673 64.909952,64.909952 0 0 0 447.09048,191.0572 Z m -74.27857,181.71905 v 111.15 l 111.14762,-111.15 z m -344.77144,0.069 111.14762,111.14762 V 372.8453 Z M 256,382.21435 A 64.909952,64.909952 0 0 0 191.09048,447.12387 64.909952,64.909952 0 0 0 256,512.03339 64.909952,64.909952 0 0 0 320.90952,447.12387 64.909952,64.909952 0 0 0 256,382.21435 Z"
     style="fill:#00284b;stroke-width:6.74038935"
     inkscape:connector-curvature="0" />
</svg>
