<?xml version="1.0" encoding="UTF-8" standalone="no"?><svg version="1.1" viewBox="0 0 440 440"><path style="fill:#00284b;stroke-width:5.52922583" d="M 220 9.9726562 A 53.246445 53.246445 0 0 0 166.75391 63.21875 A 53.246445 53.246445 0 0 0 220 116.46484 A 53.246445 53.246445 0 0 0 273.24609 63.21875 A 53.246445 53.246445 0 0 0 220 9.9726562 z M 124.17773 32.974609 L 33.001953 124.15039 L 124.17773 124.15039 L 124.17773 32.974609 z M 315.82227 32.974609 L 315.82227 124.15039 L 406.99805 124.15039 L 315.82227 32.974609 z M 220.00195 134.84766 L 134.80859 220.04102 L 220.00195 305.23438 L 305.19531 220.04102 L 220.00195 134.84766 z M 63.246094 166.72656 A 53.246445 53.246445 0 0 0 10 219.97266 A 53.246445 53.246445 0 0 0 63.246094 273.21875 A 53.246445 53.246445 0 0 0 116.49219 219.97266 A 53.246445 53.246445 0 0 0 63.246094 166.72656 z M 376.75391 166.72656 A 53.246445 53.246445 0 0 0 323.50781 219.97266 A 53.246445 53.246445 0 0 0 376.75391 273.21875 A 53.246445 53.246445 0 0 0 430 219.97266 A 53.246445 53.246445 0 0 0 376.75391 166.72656 z M 315.82227 315.79297 L 315.82227 406.9707 L 406.99805 315.79297 L 315.82227 315.79297 z M 33.001953 315.84961 L 124.17773 407.02539 L 124.17773 315.84961 L 33.001953 315.84961 z M 220 323.53516 A 53.246445 53.246445 0 0 0 166.75391 376.78125 A 53.246445 53.246445 0 0 0 220 430.02734 A 53.246445 53.246445 0 0 0 273.24609 376.78125 A 53.246445 53.246445 0 0 0 220 323.53516 z " /></svg>
