<?xml version="1.0" encoding="UTF-8" standalone="no"?>
<svg
   xmlns:dc="http://purl.org/dc/elements/1.1/"
   xmlns:cc="http://creativecommons.org/ns#"
   xmlns:rdf="http://www.w3.org/1999/02/22-rdf-syntax-ns#"
   xmlns:svg="http://www.w3.org/2000/svg"
   xmlns="http://www.w3.org/2000/svg"
   xmlns:sodipodi="http://sodipodi.sourceforge.net/DTD/sodipodi-0.dtd"
   xmlns:inkscape="http://www.inkscape.org/namespaces/inkscape"
   viewBox="0 0 400 79"
   version="1.1"
   id="svg35"
   sodipodi:docname="logo-full.svg"
   width="400"
   height="79"
   inkscape:version="0.92.3 (2405546, 2018-03-11)">
  <metadata
     id="metadata41">
    <rdf:RDF>
      <cc:Work
         rdf:about="">
        <dc:format>image/svg+xml</dc:format>
        <dc:type
           rdf:resource="http://purl.org/dc/dcmitype/StillImage" />
        <dc:title>primary_horizontal</dc:title>
      </cc:Work>
    </rdf:RDF>
  </metadata>
  <defs
     id="defs39" />
  <sodipodi:namedview
     pagecolor="#ffffff"
     bordercolor="#666666"
     borderopacity="1"
     objecttolerance="10"
     gridtolerance="10"
     guidetolerance="10"
     inkscape:pageopacity="0"
     inkscape:pageshadow="2"
     inkscape:window-width="3840"
     inkscape:window-height="2086"
     id="namedview37"
     showgrid="false"
     inkscape:zoom="7.6975"
     inkscape:cx="200"
     inkscape:cy="39.5"
     inkscape:window-x="0"
     inkscape:window-y="0"
     inkscape:window-maximized="1"
     inkscape:current-layer="svg35" />
  <title
     id="title2">primary_horizontal</title>
  <path
     style="fill:#00284b;stroke-width:1.03831375"
     d="M 39.435547 0.060546875 A 9.9989624 9.9989624 0 0 0 29.435547 10.058594 A 9.9989624 9.9989624 0 0 0 39.435547 20.056641 A 9.9989624 9.9989624 0 0 0 49.433594 10.058594 A 9.9989624 9.9989624 0 0 0 39.435547 0.060546875 z M 21.441406 4.3789062 L 4.3203125 21.5 L 21.441406 21.5 L 21.441406 4.3789062 z M 57.429688 4.3789062 L 57.429688 21.5 L 74.550781 21.5 L 57.429688 4.3789062 z M 128.50195 20.587891 A 20.215969 20.215969 0 0 0 123.31055 21.251953 A 19.478766 19.478766 0 0 0 118.60742 23.140625 A 20.143287 20.143287 0 0 0 114.64062 26.080078 A 19.032291 19.032291 0 0 0 111.52539 29.890625 A 18.689648 18.689648 0 0 0 109.54297 34.40625 A 18.274322 18.274322 0 0 0 109.54297 44.46875 A 18.824629 18.824629 0 0 0 111.52539 48.974609 A 19.198422 19.198422 0 0 0 118.56445 55.744141 A 20.434015 20.434015 0 0 0 128.51172 58.308594 A 17.807081 17.807081 0 0 0 132.66602 57.841797 A 19.458 19.458 0 0 0 139.62109 54.726562 A 20.766275 20.766275 0 0 0 142.29102 52.431641 L 137.18164 47.115234 A 11.016509 11.016509 0 0 1 135.40625 48.818359 A 11.234555 11.234555 0 0 1 133.33008 50.105469 A 11.525283 11.525283 0 0 1 130.99414 50.916016 A 11.172256 11.172256 0 0 1 120.53711 47.800781 A 11.421452 11.421452 0 0 1 118.07617 44.105469 A 12.532447 12.532447 0 0 1 118.07617 34.863281 A 11.556432 11.556432 0 0 1 120.50586 31.167969 A 11.213789 11.213789 0 0 1 128.50195 27.833984 A 11.234555 11.234555 0 0 1 133.30859 28.873047 A 10.383138 10.383138 0 0 1 137.15039 31.894531 L 142.25977 26.464844 A 22.022635 22.022635 0 0 0 139.45508 24.085938 A 18.751947 18.751947 0 0 0 136.22656 22.228516 A 19.842176 19.842176 0 0 0 132.57227 21.023438 A 18.461219 18.461219 0 0 0 128.50195 20.587891 z M 179.15625 20.611328 A 20.901256 20.901256 0 0 0 172.94141 21.251953 A 19.478766 19.478766 0 0 0 168.23828 23.140625 A 20.143287 20.143287 0 0 0 164.27148 26.080078 A 19.032291 19.032291 0 0 0 161.15625 29.890625 A 18.689648 18.689648 0 0 0 159.17383 34.40625 A 17.921296 17.921296 0 0 0 158.4668 39.431641 A 17.942062 17.942062 0 0 0 159.20508 44.46875 A 18.824629 18.824629 0 0 0 161.1875 48.974609 A 19.198422 19.198422 0 0 0 168.22852 55.744141 A 20.485931 20.485931 0 0 0 183.38672 57.634766 A 20.766275 20.766275 0 0 0 188.07031 55.724609 A 19.001142 19.001142 0 0 0 192.06641 52.785156 A 18.772713 18.772713 0 0 0 195.18164 48.953125 A 18.450836 18.450836 0 0 0 197.17578 44.447266 A 18.533901 18.533901 0 0 0 197.17578 34.386719 A 18.689648 18.689648 0 0 0 192.09766 26.080078 A 19.966774 19.966774 0 0 0 183.39648 21.251953 A 20.901256 20.901256 0 0 0 179.15625 20.611328 z M 276.33203 20.611328 A 20.901256 20.901256 0 0 0 270.11719 21.251953 A 19.644897 19.644897 0 0 0 265.41406 23.140625 A 20.143287 20.143287 0 0 0 261.50977 26.080078 A 19.032291 19.032291 0 0 0 258.39453 29.890625 A 18.689648 18.689648 0 0 0 256.41211 34.40625 A 17.910913 17.910913 0 0 0 255.7168 39.431641 A 17.931679 17.931679 0 0 0 256.39062 44.46875 A 18.824629 18.824629 0 0 0 258.37305 48.974609 A 19.198422 19.198422 0 0 0 265.41406 55.744141 A 20.537846 20.537846 0 0 0 270.1582 57.634766 A 20.589762 20.589762 0 0 0 280.61523 57.634766 A 20.766275 20.766275 0 0 0 285.32812 55.744141 A 19.115357 19.115357 0 0 0 292.41016 48.974609 A 18.824629 18.824629 0 0 0 294.39258 44.46875 A 18.533901 18.533901 0 0 0 294.39258 34.40625 A 18.689648 18.689648 0 0 0 292.41016 29.890625 A 19.084207 19.084207 0 0 0 289.29492 26.080078 A 20.35095 20.35095 0 0 0 285.28711 23.140625 A 19.894092 19.894092 0 0 0 280.57227 21.251953 A 20.901256 20.901256 0 0 0 276.33203 20.611328 z M 216.89258 21.490234 L 216.89258 57.488281 L 240.36914 57.488281 L 240.36914 50.283203 L 225.2832 50.283203 L 225.2832 21.490234 L 216.89258 21.490234 z M 314.13086 21.490234 L 314.13086 57.488281 L 322.52148 57.488281 L 322.52148 35.912109 L 339.70508 57.488281 L 346.97266 57.488281 L 346.92188 21.490234 L 338.55273 21.490234 L 338.55273 43.003906 L 321.40039 21.490234 L 314.13086 21.490234 z M 363.88672 21.490234 L 377.70703 43.886719 L 377.70703 57.488281 L 386.09766 57.488281 L 386.09766 43.855469 L 400 21.490234 L 390.19922 21.490234 L 381.97461 36.234375 L 381.89258 36.234375 L 373.6582 21.490234 L 363.88672 21.490234 z M 39.435547 23.509766 L 23.4375 39.507812 L 39.435547 55.505859 L 55.433594 39.507812 L 39.435547 23.509766 z M 178.12305 27.855469 A 11.172256 11.172256 0 0 1 182.56641 28.748047 A 10.974977 10.974977 0 0 1 186.14844 31.1875 A 11.670647 11.670647 0 0 1 188.57812 34.84375 A 12.397466 12.397466 0 0 1 188.57812 44.083984 A 11.5149 11.5149 0 0 1 186.14844 47.800781 A 11.006126 11.006126 0 0 1 182.56641 50.251953 A 11.172256 11.172256 0 0 1 178.12305 51.144531 A 11.161873 11.161873 0 0 1 170.12695 47.800781 A 11.421452 11.421452 0 0 1 167.65625 44.115234 A 11.888693 11.888693 0 0 1 166.77344 39.494141 A 11.888693 11.888693 0 0 1 167.69727 34.884766 A 11.556432 11.556432 0 0 1 170.12695 31.1875 A 11.213789 11.213789 0 0 1 178.12305 27.855469 z M 275.375 27.857422 A 11.421452 11.421452 0 0 1 279.82617 28.748047 A 10.756931 10.756931 0 0 1 283.4082 31.1875 A 11.670647 11.670647 0 0 1 285.81641 34.875 A 12.397466 12.397466 0 0 1 285.81641 44.115234 A 11.5149 11.5149 0 0 1 283.4082 47.800781 A 10.78808 10.78808 0 0 1 279.8457 50.251953 A 11.31762 11.31762 0 0 1 267.38672 47.800781 A 11.203406 11.203406 0 0 1 264.91602 44.052734 A 11.899076 11.899076 0 0 1 264.02148 39.431641 L 264.07422 39.494141 A 11.899076 11.899076 0 0 1 264.9668 34.884766 A 11.359153 11.359153 0 0 1 267.38672 31.1875 A 11.016509 11.016509 0 0 1 270.97852 28.748047 A 11.421452 11.421452 0 0 1 275.375 27.857422 z M 9.9980469 29.496094 A 9.9989624 9.9989624 0 0 0 0 39.494141 A 9.9989624 9.9989624 0 0 0 9.9980469 49.494141 A 9.9989624 9.9989624 0 0 0 19.998047 39.494141 A 9.9989624 9.9989624 0 0 0 9.9980469 29.496094 z M 68.871094 29.496094 A 9.9989624 9.9989624 0 0 0 58.873047 39.494141 A 9.9989624 9.9989624 0 0 0 68.871094 49.494141 A 9.9989624 9.9989624 0 0 0 78.871094 39.494141 A 9.9989624 9.9989624 0 0 0 68.871094 29.496094 z M 57.429688 57.488281 L 57.429688 74.611328 L 74.550781 57.488281 L 57.429688 57.488281 z M 4.3203125 57.5 L 21.441406 74.621094 L 21.441406 57.5 L 4.3203125 57.5 z M 39.435547 58.943359 A 9.9989624 9.9989624 0 0 0 29.435547 68.941406 A 9.9989624 9.9989624 0 0 0 39.435547 78.939453 A 9.9989624 9.9989624 0 0 0 49.433594 68.941406 A 9.9989624 9.9989624 0 0 0 39.435547 58.943359 z "
     id="circle4" />
</svg>
